<svg width="492" height="492" xmlns="http://www.w3.org/2000/svg">

 <g>
  <title>background</title>
  <rect fill="none" id="canvas_background" height="402" width="582" y="-1" x="-1"/>
 </g>
 <g>
  <title>Layer 1</title>
  <g id="svg_1">
   <g id="svg_2">
    <path fill="#e45c96" id="svg_3" d="m246,0c-135.644,0 -246,110.352 -246,246s110.356,246 246,246c135.648,0 246,-110.352 246,-246s-110.352,-246 -246,-246zm107.78,296.076l-94.376,94.376c-3.604,3.604 -8.432,5.592 -13.592,5.592l-0.064,3.844l0.012,-3.844c-0.004,0.004 -0.064,0.004 -0.068,0.004c-5.16,0 -9.988,-1.988 -13.596,-5.592l-94.344,-94.348c-7.496,-7.496 -7.496,-19.692 0,-27.184l16.12,-16.128c3.608,-3.608 8.4,-5.6 13.476,-5.6c5.076,0 9.868,1.992 13.468,5.592l27.852,28.084c1.092,1.108 2.752,1.44 4.192,0.848c1.44,-0.592 2.38,-1.996 2.38,-3.556l0,-159.04c0,-10.42 9.016,-19.224 19.688,-19.224l22.804,0c10.488,0 19.024,8.62 19.024,19.224l0,157.88c0,1.556 0.932,2.956 2.368,3.552c1.436,0.588 3.088,0.264 4.192,-0.828l27.06,-26.96c3.612,-3.612 8.448,-5.604 13.616,-5.604c5.168,0 10.004,1.992 13.616,5.608l16.148,16.12c3.616,3.616 5.608,8.444 5.612,13.592c0.004,5.156 -1.98,9.98 -5.588,13.592z"/>
   </g>
  </g>
  <g id="svg_4"/>
  <g id="svg_5"/>
  <g id="svg_6"/>
  <g id="svg_7"/>
  <g id="svg_8"/>
  <g id="svg_9"/>
  <g id="svg_10"/>
  <g id="svg_11"/>
  <g id="svg_12"/>
  <g id="svg_13"/>
  <g id="svg_14"/>
  <g id="svg_15"/>
  <g id="svg_16"/>
  <g id="svg_17"/>
  <g id="svg_18"/>
 </g>
</svg>
